<?xml version="1.0" standalone="no"?>
<!DOCTYPE svg PUBLIC "-//W3C//DTD SVG 20010904//EN"
 "http://www.w3.org/TR/2001/REC-SVG-20010904/DTD/svg10.dtd">
<svg version="1.0" xmlns="http://www.w3.org/2000/svg"
 width="617.000000pt" height="617.000000pt" viewBox="0 0 617.000000 617.000000"
 preserveAspectRatio="xMidYMid meet">
<metadata>
Created by potrace 1.11, written by Peter Selinger 2001-2013
</metadata>
<g transform="translate(0.000000,617.000000) scale(0.100000,-0.100000)"
fill="#000000" stroke="none">
<path d="M1243 5213 c-18 -9 -33 -20 -33 -24 0 -4 -8 -15 -17 -25 -16 -15 -18
-42 -20 -223 l-1 -206 15 140 c11 100 12 140 4 143 -6 2 -11 27 -10 60 0 39 3
51 8 37 l8 -20 5 20 c5 19 6 18 16 -5 10 -24 11 -24 11 -3 1 12 -4 25 -9 28
-8 5 -7 11 1 21 9 11 9 14 -1 14 -22 0 0 15 23 16 12 1 31 5 41 9 11 5 17 5
14 -1 -9 -13 502 -6 519 8 9 7 13 7 13 0 0 -6 -4 -14 -10 -17 -5 -3 -15 -16
-21 -28 -7 -15 -3 -12 15 8 24 29 25 29 26 7 0 -13 -4 -21 -9 -18 -5 3 -16
-10 -26 -30 l-17 -36 -221 2 c-271 2 -254 3 -254 -15 0 -18 14 -20 19 -3 3 8
67 11 240 9 221 -2 238 -1 256 17 28 28 28 97 1 116 -33 23 -540 22 -586 -1z
m33 -8 c-11 -8 -24 -15 -30 -15 -5 0 -1 7 10 15 10 8 24 14 29 14 6 0 1 -6 -9
-14z m534 4 c0 -5 -103 -9 -255 -9 -168 0 -255 4 -255 10 0 7 86 10 255 10
151 -1 255 -5 255 -11z m-607 -64 c-3 -9 -8 -14 -10 -11 -3 3 -2 9 2 15 9 16
15 13 8 -4z m630 -31 c-4 -10 -9 -12 -15 -6 -12 12 -1 35 12 27 5 -3 6 -13 3
-21z"/>
<path d="M4390 5216 c7 -7 14 -6 21 1 9 9 7 12 -9 10 -14 -1 -18 -5 -12 -11z"/>
<path d="M4431 5226 c7 -8 478 -10 486 -3 3 4 -105 7 -242 7 -137 0 -246 -2
-244 -4z"/>
<path d="M4352 5199 c-19 -30 -14 -76 10 -99 25 -23 34 -25 44 -8 5 8 2 9 -9
5 -11 -4 -17 -1 -17 7 0 7 -7 19 -15 26 -17 14 -20 46 -6 55 5 3 16 -2 25 -10
13 -14 15 -13 13 4 -2 30 -31 43 -45 20z"/>
<path d="M4925 5210 c-3 -5 -22 -10 -42 -10 -57 0 -34 -9 35 -13 34 -2 65 -6
69 -10 3 -4 8 -35 10 -69 4 -65 12 -92 14 -42 0 16 2 38 4 48 5 26 -19 70 -49
90 -30 19 -33 19 -41 6z m29 -8 c2 -4 -4 -8 -14 -8 -10 0 -16 4 -14 8 3 4 9 8
14 8 5 0 11 -4 14 -8z"/>
<path d="M4413 5197 c-3 -5 -2 -11 1 -14 3 -4 6 -2 6 3 0 5 86 7 210 4 115 -3
206 -2 202 2 -10 10 -413 15 -419 5z"/>
<path d="M2960 5145 c-323 -69 -616 -316 -776 -652 -43 -91 -98 -255 -114
-340 -12 -61 -13 -62 -41 -56 -88 17 -162 -68 -184 -214 -7 -44 16 -155 38
-181 6 -8 15 -51 18 -96 10 -131 60 -205 145 -216 l45 -5 25 -75 c67 -201 180
-386 319 -526 191 -192 410 -295 656 -311 347 -22 691 163 908 487 80 120 116
190 162 320 l37 105 52 5 c45 5 58 11 85 43 38 44 58 103 60 177 0 36 9 72 25
105 54 109 32 270 -46 346 -31 30 -41 34 -89 34 l-53 0 -12 60 c-21 104 -77
261 -134 372 -155 301 -397 513 -683 599 -74 22 -112 27 -233 30 -98 2 -166
-1 -210 -11z"/>
<path d="M4421 5114 c0 -11 3 -14 6 -6 3 7 2 16 -1 19 -3 4 -6 -2 -5 -13z"/>
<path d="M4625 5090 l-210 -6 215 -1 c118 -1 224 -5 235 -9 17 -7 18 -6 5 7
-8 9 -19 15 -25 15 -5 -1 -104 -3 -220 -6z"/>
<path d="M4895 5090 c-3 -5 -1 -10 4 -10 6 0 11 5 11 10 0 6 -2 10 -4 10 -3 0
-8 -4 -11 -10z"/>
<path d="M4872 4758 c-2 -332 0 -348 49 -369 37 -15 87 4 100 38 5 13 8 162 7
331 -1 212 -4 270 -8 187 l-6 -120 -5 100 -5 100 -2 -102 c-1 -59 2 -104 8
-108 6 -4 10 -75 9 -183 -1 -103 -5 -165 -9 -147 -7 28 -8 29 -9 4 0 -14 5
-31 12 -38 10 -10 7 -12 -13 -8 -14 2 -19 2 -12 0 7 -3 9 -9 6 -15 -4 -7 -2
-8 4 -4 7 4 12 3 12 -2 0 -5 -8 -12 -17 -15 -10 -2 -27 -8 -37 -13 -15 -5 -17
-4 -11 6 5 9 4 11 -3 6 -12 -7 -40 4 -41 17 -1 4 -1 10 -2 15 -1 4 -1 21 -1
37 l1 30 -8 -30 c-8 -27 -9 -26 -10 18 0 26 4 47 9 47 6 0 10 -5 10 -12 0 -6
2 -9 5 -7 8 8 -7 49 -16 43 -5 -3 -9 73 -9 175 0 134 3 181 13 184 9 4 9 7 0
14 -6 5 -14 35 -16 68 -2 33 -4 -78 -5 -247z"/>
<path d="M1322 5003 c-1 -28 -5 -60 -8 -70 -5 -14 -4 -15 5 -7 8 7 11 33 8 70
l-3 59 -2 -52z"/>
<path d="M1216 5018 c-6 -19 -14 -105 -9 -90 3 6 8 10 11 8 4 -2 7 18 7 45 0
50 -2 59 -9 37z"/>
<path d="M1202 4880 c0 -14 2 -19 5 -12 2 6 2 18 0 25 -3 6 -5 1 -5 -13z"/>
<path d="M1310 4672 c0 -227 0 -229 -22 -241 -13 -6 -15 -9 -5 -7 22 7 23 -10
0 -18 -22 -9 -40 9 -25 26 8 10 3 13 -21 14 -18 1 -25 0 -17 -3 8 -2 20 -15
27 -29 11 -24 10 -26 -7 -21 -11 3 -20 0 -20 -5 0 -18 64 0 83 23 15 19 17 47
17 255 0 129 -2 234 -5 234 -3 0 -5 -103 -5 -228z"/>
<path d="M4890 4846 c0 -19 3 -37 8 -40 4 -2 6 13 4 35 -5 48 -12 51 -12 5z"/>
<path d="M1212 4833 c-1 -13 -6 -23 -10 -23 -5 0 -9 -26 -9 -57 0 -43 1 -47 4
-18 3 22 9 43 14 46 6 3 9 21 6 40 -2 19 -5 24 -5 12z"/>
<path d="M4892 4730 c0 -14 2 -19 5 -12 2 6 2 18 0 25 -3 6 -5 1 -5 -13z"/>
<path d="M1167 4713 c-11 -10 -8 -93 3 -93 6 0 10 23 10 50 0 51 -1 55 -13 43z"/>
<path d="M1213 4670 c0 -30 2 -43 4 -27 2 15 2 39 0 55 -2 15 -4 2 -4 -28z"/>
<path d="M4893 4660 c0 -25 2 -35 4 -22 2 12 2 32 0 45 -2 12 -4 2 -4 -23z"/>
<path d="M5000 4618 c-3 -48 -1 -83 3 -79 4 4 7 43 5 87 l-3 79 -5 -87z"/>
<path d="M1193 4580 c0 -25 2 -35 4 -22 2 12 2 32 0 45 -2 12 -4 2 -4 -23z"/>
<path d="M1160 4525 c0 -49 3 -86 6 -83 8 9 9 157 1 165 -4 3 -7 -33 -7 -82z"/>
<path d="M1211 4514 c0 -11 3 -14 6 -6 3 7 2 16 -1 19 -3 4 -6 -2 -5 -13z"/>
<path d="M1192 4490 c0 -19 2 -27 5 -17 2 9 2 25 0 35 -3 9 -5 1 -5 -18z"/>
<path d="M1182 4438 c-7 -7 -8 -17 -1 -30 11 -21 34 -25 26 -4 -4 10 -1 13 9
9 7 -3 14 0 14 6 0 6 -3 10 -7 10 -20 -3 -34 2 -28 11 8 13 2 13 -13 -2z"/>
<path d="M4930 4429 c-12 -8 -10 -9 8 -4 13 4 22 2 22 -5 0 -6 5 -8 11 -4 8 4
7 9 -2 15 -18 11 -21 11 -39 -2z"/>
<path d="M1202 3353 c-27 -11 -42 -62 -42 -143 0 -49 4 -79 10 -75 5 3 7 28 4
56 -3 34 0 57 8 67 7 9 8 13 2 9 -6 -4 -10 2 -8 16 1 12 3 25 3 30 1 4 4 6 9
6 22 -4 31 3 25 19 -6 15 -5 15 10 3 10 -8 24 -10 34 -6 10 5 22 7 26 6 5 -1
6 3 2 9 -3 5 -15 10 -26 10 -11 0 -17 -4 -14 -10 3 -5 1 -10 -4 -10 -6 0 -11
5 -11 10 0 11 -7 12 -28 3z"/>
<path d="M4930 3350 c8 -5 25 -7 37 -4 28 8 57 -41 41 -70 -8 -14 -7 -17 1
-12 8 6 11 -68 11 -284 -1 -161 1 -295 4 -298 3 -3 6 139 6 315 l0 320 -23 21
c-15 14 -36 22 -58 22 -25 0 -30 -3 -19 -10z"/>
<path d="M4889 3333 c-11 -12 -15 -85 -19 -337 l-5 -321 -243 -5 c-241 -5
-244 -5 -263 -29 -24 -30 -24 -72 1 -102 22 -28 27 -13 5 17 -21 28 -18 57 8
83 23 21 30 22 251 21 224 -1 227 -2 220 -22 -4 -14 -2 -18 5 -14 6 4 11 16
11 27 0 20 15 26 25 9 3 -5 12 -10 18 -10 7 1 5 6 -5 13 -14 11 -16 47 -17
326 -1 220 2 310 10 306 6 -4 8 -14 4 -24 -5 -13 -4 -14 6 -3 10 9 10 15 1 24
-7 7 -12 19 -12 28 0 13 1 13 10 0 7 -12 9 -10 7 8 -2 26 -1 26 -18 5z"/>
<path d="M1280 3321 c0 -6 7 -11 15 -11 12 0 15 -30 18 -187 l3 -188 -1 195
c0 177 -2 195 -17 198 -10 2 -18 -1 -18 -7z"/>
<path d="M1220 3300 c0 -5 -7 -7 -15 -4 -8 4 -15 1 -15 -6 0 -6 5 -8 10 -5 12
7 12 6 10 -105 -1 -47 1 -82 4 -79 3 2 6 46 7 96 1 76 4 93 18 95 14 3 14 4
-1 10 -10 4 -18 3 -18 -2z"/>
<path d="M4991 3234 c0 -11 3 -14 6 -6 3 7 2 16 -1 19 -3 4 -6 -2 -5 -13z"/>
<path d="M4896 3208 c-3 -13 -5 -59 -4 -103 l1 -80 8 100 c7 102 6 123 -5 83z"/>
<path d="M1191 3204 c0 -11 3 -14 6 -6 3 7 2 16 -1 19 -3 4 -6 -2 -5 -13z"/>
<path d="M4996 3185 c-3 -9 -6 -22 -5 -28 0 -7 5 -1 10 12 5 13 8 26 5 28 -2
2 -6 -3 -10 -12z"/>
<path d="M1192 3120 c0 -14 2 -19 5 -12 2 6 2 18 0 25 -3 6 -5 1 -5 -13z"/>
<path d="M5002 3050 c-1 -47 -4 -103 -7 -125 l-5 -40 11 40 c5 22 8 78 6 125
l-3 85 -2 -85z"/>
<path d="M1160 3095 c0 -8 2 -15 4 -15 2 0 6 7 10 15 3 8 1 15 -4 15 -6 0 -10
-7 -10 -15z"/>
<path d="M1160 3055 c0 -8 5 -15 10 -15 6 0 10 7 10 15 0 8 -4 15 -10 15 -5 0
-10 -7 -10 -15z"/>
<path d="M1176 3023 c-11 -11 -6 -405 6 -427 14 -28 66 -76 81 -76 7 0 4 5 -7
11 -37 22 -53 45 -45 65 5 11 8 13 8 5 1 -8 3 -12 6 -9 3 3 3 13 -1 22 -4 12
-10 14 -19 6 -13 -10 -25 -4 -25 14 0 6 4 5 9 -3 6 -10 9 -2 8 22 0 21 -6 37
-11 37 -6 0 -5 4 3 9 9 6 12 21 7 52 -3 24 -9 93 -12 153 -5 86 -4 110 7 117
8 5 9 9 3 9 -6 0 -14 -3 -18 -7z"/>
<path d="M4893 2980 c0 -25 2 -35 4 -22 2 12 2 32 0 45 -2 12 -4 2 -4 -23z"/>
<path d="M1212 2910 c0 -19 2 -27 5 -17 2 9 2 25 0 35 -3 9 -5 1 -5 -18z"/>
<path d="M1313 2880 c0 -25 2 -35 4 -22 2 12 2 32 0 45 -2 12 -4 2 -4 -23z"/>
<path d="M1204 2855 c-3 -8 -2 -47 4 -87 l10 -73 -2 87 c0 48 -2 88 -4 88 -1
0 -5 -7 -8 -15z"/>
<path d="M4902 2840 c0 -14 2 -19 5 -12 2 6 2 18 0 25 -3 6 -5 1 -5 -13z"/>
<path d="M1314 2755 c1 -85 16 -85 16 0 0 36 -4 65 -9 65 -5 0 -8 -29 -7 -65z"/>
<path d="M5000 2738 c-3 -26 -1 -43 3 -39 5 5 7 26 5 47 l-3 39 -5 -47z"/>
<path d="M1315 2670 c-2 -3 3 -11 11 -18 8 -7 14 -8 14 -3 0 7 83 12 233 13
l232 3 -243 5 c-134 3 -245 3 -247 0z"/>
<path d="M5009 2648 c-1 -13 -1 -26 0 -30 0 -5 -2 -7 -6 -7 -19 3 -27 -2 -15
-10 10 -6 7 -10 -12 -13 -14 -3 -26 -1 -26 3 0 5 5 9 10 9 6 0 10 4 10 8 0 13
-53 8 -56 -6 -1 -7 0 -8 3 -2 2 5 9 10 14 10 6 0 5 -8 -1 -20 -8 -14 -8 -26 1
-41 10 -19 8 -20 -10 -14 -12 4 -21 2 -21 -4 0 -14 -57 -14 -65 -1 -4 6 -84 9
-213 8 l-207 -2 210 -6 210 -6 -212 -2 c-137 -1 -213 2 -213 8 0 6 -4 10 -8
10 -5 0 -9 -7 -9 -15 0 -22 504 -22 547 0 52 27 106 124 79 141 -5 3 -10 -5
-10 -18z m-35 -87 c-15 -14 -21 -15 -31 -5 -19 18 -16 21 18 22 30 1 31 0 13
-17z"/>
<path d="M1780 2649 l-35 -6 33 -2 c19 0 35 -7 38 -16 4 -8 10 -12 15 -9 5 3
5 -6 -1 -20 -5 -14 -7 -34 -4 -43 5 -15 3 -15 -11 2 -17 20 -17 19 -13 -7 l5
-28 -263 3 c-145 1 -264 -1 -264 -5 0 -5 119 -8 264 -8 l265 0 19 25 c21 26
26 103 7 97 -5 -2 -12 3 -15 10 -3 9 -15 11 -40 7z"/>
<path d="M1387 2638 c2 -5 76 -8 163 -8 87 0 161 3 163 8 3 4 -71 7 -163 7
-92 0 -166 -3 -163 -7z"/>
<path d="M4383 2633 c-23 -16 -31 -43 -13 -43 6 0 10 5 10 12 0 6 7 20 17 30
20 22 16 22 -14 1z"/>
<path d="M4427 2638 c2 -5 -1 -8 -6 -8 -6 0 -11 -8 -11 -17 1 -17 1 -17 14 -1
11 15 37 18 212 20 l199 3 -207 5 c-113 3 -204 2 -201 -2z"/>
<path d="M4880 2630 c-12 -7 -10 -9 7 -7 12 0 19 5 17 9 -6 10 -6 10 -24 -2z"/>
<path d="M1748 2623 c7 -3 16 -2 19 1 4 3 -2 6 -13 5 -11 0 -14 -3 -6 -6z"/>
<path d="M1797 2603 c-4 -3 -7 -11 -7 -17 0 -6 5 -5 12 2 6 6 9 14 7 17 -3 3
-9 2 -12 -2z"/>
<path d="M1428 2533 c67 -2 177 -2 245 0 67 1 12 3 -123 3 -135 0 -190 -2
-122 -3z"/>
<path d="M2035 2179 c-307 -39 -591 -242 -732 -524 -66 -131 -120 -384 -95
-440 82 -179 1688 -283 2932 -189 446 33 786 93 887 155 32 20 33 23 33 88 0
345 -243 698 -579 841 -152 65 -216 74 -528 74 l-281 1 -25 -23 c-14 -13 -28
-40 -32 -60 -11 -58 -62 -146 -118 -202 -206 -205 -587 -214 -801 -19 -71 65
-108 121 -135 208 -32 100 -34 101 -268 100 -103 -1 -219 -5 -258 -10z"/>
</g>
</svg>
